<?xml version="1.0" encoding="utf-8"?>
<!-- Generator: Adobe Illustrator 21.1.0, SVG Export Plug-In . SVG Version: 6.00 Build 0)  -->
<svg version="1.1" id="Github" xmlns="http://www.w3.org/2000/svg" xmlns:xlink="http://www.w3.org/1999/xlink" x="0px" y="0px"
	 viewBox="0 0 36.1 13.1" style="enable-background:new 0 0 36.1 13.1;" xml:space="preserve">
<style type="text/css">
	.st0{fill:#EA4C89;}
</style>
<g id="HwgtKS.tif">
	<g>
		<path class="st0" d="M0.5,8.5c0-0.1,0-0.3,0.1-0.4C0.7,7.5,1,7,1.5,6.7c0.4-0.2,0.8-0.3,1.2-0.3c0.1,0,0.2,0,0.3,0.1
			c0-0.1,0-0.3,0-0.4c-0.1-0.7-0.1-1.3,0-2C3,3.8,3.1,3.4,3.2,3c0.2-0.4,0.5-0.7,0.9-0.7c0.3-0.1,0.6,0,0.8,0.3
			c0.3,0.3,0.4,0.6,0.5,1c0.1,0.5,0.2,1.1,0.1,1.7C5.5,6.4,5.1,7.6,4.7,8.8c0,0.1,0,0.1,0,0.2c0.1,0.2,0.2,0.4,0.2,0.5
			C4.9,9.5,5,9.6,5,9.6c0.2,0.2,0.4,0.2,0.6,0C5.8,9.5,5.9,9.3,6,9.1c0.2-0.4,0.3-0.9,0.4-1.4c0.1-0.4,0.1-0.8,0.1-1.2
			c0-0.2,0-0.3,0-0.5c0-0.1,0.1-0.2,0.3-0.3C7,5.7,7.2,5.8,7.4,6c0,0,0,0,0,0c0.2,0.3,0.5,0.4,0.8,0.4c0.2,0,0.3,0,0.5,0.1
			c0.4,0.1,0.6,0.3,0.6,0.8c0,0.2,0,0.5,0,0.7c0,0.4-0.1,0.8,0,1.2c0,0.1,0,0.3,0.1,0.4c0.1,0.2,0.2,0.2,0.4,0.2
			c0.2-0.1,0.4-0.3,0.5-0.4c0.2-0.3,0.3-0.6,0.4-1c0-0.3,0-0.6,0-0.9c0-0.2,0.1-0.5,0.1-0.7c0-0.2,0.1-0.2,0.3-0.3
			c0.1,0,0.2,0,0.4,0c0.1,0,0.2,0.1,0.3,0.3c0,0.1,0,0.2,0,0.2c0,0.6,0,1.3,0,1.9c0,0.2,0.1,0.4,0.1,0.6c0,0.1,0.1,0.2,0.1,0.3
			c0.1,0.1,0.2,0.1,0.2,0c0.1-0.1,0.2-0.1,0.3-0.2c0.2-0.2,0.3-0.4,0.4-0.6c0.2-0.4,0.4-0.9,0.5-1.4c0-0.1,0-0.1,0-0.2
			c-0.1-0.8-0.1-1.6,0-2.5c0-0.6,0.1-1.1,0.3-1.7c0.1-0.2,0.2-0.4,0.3-0.6c0.2-0.3,0.5-0.4,0.9-0.4c0.4,0,0.6,0.3,0.8,0.6
			c0.1,0.2,0.1,0.5,0.1,0.7c0,0.8-0.2,1.6-0.5,2.4c-0.2,0.5-0.4,1-0.6,1.5c-0.1,0.1-0.1,0.2-0.1,0.3c0,0.5,0,1,0.2,1.4
			c0.1,0.3,0.3,0.5,0.5,0.6c0.3,0.2,0.6,0.1,0.9-0.1c0.3-0.2,0.4-0.5,0.5-0.8c0-0.1,0-0.1,0.1-0.2c0,0,0-0.1,0-0.1
			c-0.5-0.3-0.8-0.8-0.8-1.4c0-0.1,0-0.2,0.1-0.3c0.1-0.2,0.2-0.3,0.4-0.3c0.3,0,0.6,0.2,0.8,0.4c0.2,0.2,0.3,0.4,0.3,0.6
			c0,0,0,0,0,0c0.2,0,0.3-0.1,0.5-0.2c0,0,0,0,0,0c0.1-0.1,0.1-0.2,0.1-0.3C18,6.6,18,6,18,5.4c0-0.5,0.1-0.9,0.1-1.4
			c0.1-0.4,0.2-0.8,0.4-1.1c0.1-0.2,0.2-0.4,0.4-0.5c0.4-0.3,1-0.1,1.3,0.3c0.1,0.2,0.2,0.4,0.2,0.7c0,0.5-0.1,1.1-0.2,1.6
			c-0.2,0.9-0.5,1.8-0.9,2.6c0,0.1,0,0.1,0,0.2c-0.1,0.5,0,0.9,0.1,1.4c0.1,0.3,0.2,0.5,0.5,0.7c0.3,0.2,0.7,0.2,1,0
			c0.3-0.2,0.4-0.5,0.5-0.8c0-0.1,0-0.2,0.1-0.3c-0.5-0.2-0.7-0.6-0.9-1.1c-0.1-0.2-0.1-0.5,0-0.7c0.1-0.2,0.2-0.2,0.4-0.2
			c0.5,0.2,0.9,0.5,1.1,1c0,0,0,0.1,0,0.1c0,0,0,0,0,0c0.2-0.1,0.4-0.2,0.6-0.3c0,0,0.1-0.1,0-0.2c0-0.6,0-1.1,0-1.7
			c0-0.7,0.1-1.4,0.3-2.1c0.1-0.3,0.2-0.6,0.4-0.9c0.4-0.6,1.3-0.5,1.6,0.2C25,3,25.1,3.2,25.1,3.4c0,0.5-0.1,1-0.1,1.4
			c-0.2,1-0.5,1.9-1,2.8c0,0.1,0,0.1,0,0.2c-0.1,0.5,0,0.9,0.1,1.4c0.1,0.2,0.2,0.4,0.4,0.6c0.4,0.3,0.8,0.3,1.1-0.1
			c0.2-0.2,0.3-0.5,0.4-0.8c0-0.1,0-0.1,0-0.2c-0.6-0.3-0.9-0.7-1-1.3c0-0.2,0-0.4,0.2-0.6c0.1-0.1,0.2-0.1,0.3-0.1
			c0.3,0.1,0.5,0.2,0.7,0.4c0.2,0.2,0.4,0.4,0.5,0.7c0,0,0,0,0.1,0c0.2,0,0.3,0,0.5-0.1c0,0,0.1,0,0-0.1c-0.2-0.8-0.2-1.6-0.2-2.4
			c0-0.7,0.1-1.3,0.4-2c0.1-0.2,0.2-0.4,0.3-0.6c0.3-0.3,0.6-0.5,1-0.4c0.4,0,0.7,0.2,0.9,0.6c0.1,0.1,0.1,0.3,0.1,0.4
			c0.1,0.4,0.1,0.8,0,1.2c0,0.5-0.1,1.1-0.3,1.6c-0.2,0.7-0.5,1.4-1,1.9c0,0,0,0-0.1,0.1c-0.1,0.1-0.1,0.1-0.1,0.2
			c0.1,0.4,0.3,0.8,0.5,1.1c0.1,0.1,0.2,0.3,0.4,0.4c0.3,0.1,0.6,0.1,0.8,0c0.1-0.1,0.2-0.1,0.3-0.2c-0.1-0.2-0.1-0.3-0.2-0.4
			c-0.2-0.7-0.1-1.5,0.3-2.1c0.3-0.5,0.8-0.8,1.4-0.9c0.4,0,0.7,0,1,0.3c0.3,0.2,0.4,0.5,0.4,0.9c0,0.6-0.2,1.1-0.5,1.6
			c-0.3,0.3-0.6,0.6-0.9,0.8c0.1,0,0.1,0.1,0.2,0.1c0.8,0.3,1.6,0.2,2.2-0.4C34.6,9,34.8,8.7,35,8.3c0.1-0.2,0.2-0.2,0.3-0.1
			c0.2,0.2,0.3,0.3,0.4,0.6c0,0.1,0,0.2-0.1,0.2c-0.4,0.6-0.8,1.1-1.4,1.4c-0.5,0.3-1.1,0.4-1.7,0.3c-0.5,0-0.9-0.2-1.3-0.4
			c0,0-0.1,0-0.1-0.1c-0.1-0.1-0.1,0-0.1,0c-0.3,0.2-0.5,0.4-0.8,0.5c-0.6,0.2-1.1,0.1-1.6-0.3C28.2,10,27.9,9.6,27.7,9
			c-0.1-0.1-0.1-0.3-0.1-0.4c-0.2,0.1-0.4,0.1-0.7,0.2c0,0.2-0.1,0.4-0.1,0.5c-0.2,0.5-0.4,0.9-0.9,1.2c-0.3,0.2-0.5,0.3-0.9,0.3
			c0,0-0.1,0-0.1,0c0,0,0,0,0,0c-0.1,0-0.1,0-0.2,0c-0.4-0.1-0.8-0.3-1-0.6c-0.3-0.4-0.5-0.8-0.6-1.3c0-0.2-0.1-0.3-0.1-0.5
			c-0.1,0.1-0.2,0.2-0.3,0.2c-0.1,0.1-0.3,0.1-0.4,0.2c0,0,0,0,0,0.1c0,0.3-0.1,0.5-0.2,0.8c-0.2,0.5-0.6,0.9-1.1,1
			c-0.3,0.1-0.6,0.1-0.9,0.1c-0.4-0.1-0.7-0.3-0.9-0.6c-0.3-0.4-0.5-0.8-0.6-1.3c0-0.1-0.1-0.3-0.1-0.4c-0.2,0.2-0.5,0.3-0.7,0.4
			c0,0,0,0,0,0.1c-0.1,0.3-0.1,0.6-0.3,0.9c-0.3,0.6-0.7,1-1.4,1.1c-0.5,0.1-1-0.1-1.3-0.4c-0.4-0.3-0.6-0.8-0.7-1.3
			c-0.1,0.1-0.1,0.3-0.2,0.4c-0.2,0.4-0.4,0.7-0.7,1c-0.2,0.2-0.4,0.3-0.7,0.3c-0.4,0-0.7-0.1-0.9-0.4c-0.1-0.1-0.2-0.3-0.3-0.5
			c-0.1,0.1-0.1,0.2-0.2,0.2c-0.2,0.2-0.4,0.4-0.6,0.5c-0.5,0.3-1.2,0.2-1.5-0.5C8.4,9.9,8.3,9.6,8.3,9.3c-0.1-0.5-0.1-1-0.1-1.5
			c0-0.1,0-0.2,0-0.3c0-0.1-0.1-0.2-0.2-0.2c-0.1,0-0.1,0-0.2,0c-0.1,0-0.3-0.1-0.4-0.1c0,0,0,0.1,0,0.1C7.3,7.8,7.2,8.4,7,9
			c-0.2,0.4-0.3,0.8-0.6,1.2c-0.2,0.3-0.4,0.5-0.7,0.6c-0.4,0.1-0.7,0.1-1-0.2c-0.1-0.1-0.2-0.2-0.3-0.4c0-0.1-0.1-0.1-0.1-0.2
			c0,0,0,0-0.1,0.1c-0.6,0.7-1.4,0.9-2.2,0.7c-0.8-0.3-1.2-0.9-1.4-1.7c0-0.1,0-0.3,0-0.4C0.5,8.6,0.5,8.5,0.5,8.5z M1.3,8.6
			c0,0.3,0.1,0.5,0.2,0.7c0.3,0.5,0.7,0.7,1.3,0.6C3.3,9.9,3.6,9.5,3.7,9c0,0,0-0.1,0-0.1C3.5,8.5,3.3,8,3.2,7.6c0,0,0-0.1-0.1-0.1
			C3,7.4,2.8,7.3,2.6,7.3c-0.3,0-0.6,0-0.8,0.2C1.4,7.8,1.3,8.2,1.3,8.6z M4.2,7.6c0.1-0.1,0.1-0.3,0.1-0.4c0.3-0.7,0.4-1.4,0.4-2.1
			c0-0.5,0-0.9-0.1-1.4c0-0.1-0.1-0.2-0.1-0.3C4.4,3.2,4.4,3.2,4.2,3.3C4.2,3.3,4.1,3.4,4,3.5C3.9,3.7,3.9,3.9,3.8,4.2
			C3.7,4.7,3.7,5.2,3.8,5.7c0,0.6,0.2,1.1,0.4,1.7C4.1,7.5,4.2,7.5,4.2,7.6z M28.1,7.3C28.1,7.2,28.1,7.2,28.1,7.3
			c0.4-0.6,0.7-1.3,0.9-2C29,4.9,29.1,4.4,29.1,4c0-0.2,0-0.4-0.1-0.6c-0.1-0.3-0.3-0.3-0.5-0.1c-0.1,0.1-0.2,0.3-0.3,0.4
			C28.1,4.1,28,4.5,28,4.9c0,0.7,0,1.4,0.1,2.1C28,7,28.1,7.1,28.1,7.3z M31.3,9.1C31.3,9.1,31.3,9.1,31.3,9.1
			c0.3-0.2,0.6-0.4,0.9-0.7c0.2-0.3,0.3-0.6,0.3-0.9c0-0.2-0.2-0.4-0.4-0.4c-0.3,0-0.4,0.1-0.6,0.3c-0.2,0.3-0.3,0.5-0.3,0.9
			C31.1,8.5,31.2,8.8,31.3,9.1z M18.9,6.5C18.9,6.5,18.9,6.5,18.9,6.5C19,6.3,19,6.2,19.1,6.1c0.2-0.5,0.3-1.1,0.4-1.6
			c0.1-0.3,0.1-0.6,0.1-0.9c0-0.1,0-0.1,0-0.2c0-0.1-0.1-0.1-0.2-0.1c0,0-0.1,0-0.1,0.1c-0.1,0.1-0.1,0.2-0.1,0.2
			C19,3.8,19,4.1,18.9,4.3c-0.1,0.6-0.1,1.3-0.1,2C18.9,6.3,18.9,6.4,18.9,6.5z M14.2,6.5C14.2,6.5,14.2,6.5,14.2,6.5
			c0.1-0.1,0.1-0.2,0.2-0.4c0.2-0.7,0.4-1.4,0.5-2.1c0-0.2,0-0.4,0-0.6c0-0.1-0.1-0.2-0.2-0.1c-0.1,0.1-0.1,0.1-0.1,0.2
			c-0.1,0.2-0.1,0.4-0.2,0.6c-0.1,0.6-0.1,1.1-0.1,1.7C14.2,6,14.2,6.2,14.2,6.5z M23.6,6.5C23.6,6.5,23.6,6.5,23.6,6.5
			c0.1-0.1,0.1-0.2,0.2-0.3C24,5.5,24.1,4.7,24.2,4c0-0.2,0-0.3,0-0.5c0-0.2-0.1-0.2-0.3-0.1c-0.1,0.1-0.1,0.1-0.1,0.2
			c-0.1,0.2-0.1,0.4-0.2,0.6c-0.1,0.7-0.1,1.4-0.1,2.1C23.5,6.4,23.5,6.4,23.6,6.5z"/>
		<path class="st0" d="M11.2,5.7c-0.4,0-0.7-0.3-0.7-0.7c0-0.4,0.3-0.7,0.7-0.7C11.6,4.3,12,4.6,12,5C12,5.4,11.6,5.7,11.2,5.7z"/>
	</g>
</g>
</svg>
