<?xml version="1.0" encoding="utf-8"?>
<!-- Generator: Adobe Illustrator 21.1.0, SVG Export Plug-In . SVG Version: 6.00 Build 0)  -->
<svg version="1.1" id="ball_1_" xmlns="http://www.w3.org/2000/svg" xmlns:xlink="http://www.w3.org/1999/xlink" x="0px" y="0px"
	 viewBox="0 0 216 216" style="enable-background:new 0 0 216 216;" xml:space="preserve">
<style type="text/css">
	.st0{fill-rule:evenodd;clip-rule:evenodd;fill:#EA4C89;}
</style>
<g id="ball">
	<g>
		<path class="st0" d="M108,15.8c-50.8,0-92.2,41.3-92.2,92.2s41.3,92.2,92.2,92.2c50.8,0,92.2-41.3,92.2-92.2S158.8,15.8,108,15.8z
			 M169,58.3c11,13.4,17.6,30.5,17.8,49c-2.6-0.5-28.6-5.8-54.8-2.5c-0.6-1.3-1.1-2.7-1.7-4.1c-1.6-3.8-3.4-7.7-5.2-11.4
			C154.1,77.4,167.3,60.5,169,58.3z M108,29.3c20,0,38.3,7.5,52.2,19.8c-1.4,2-13.3,17.9-41.3,28.4C106,53.9,91.8,34.4,89.6,31.5
			C95.5,30.1,101.7,29.3,108,29.3z M74.6,36.8c2.1,2.8,16.1,22.3,29.2,45.5C66.9,92.1,34.5,92,31,91.9
			C36.1,67.5,52.5,47.2,74.6,36.8z M29.3,108.1c0-0.8,0-1.6,0-2.4c3.4,0.1,41.6,0.6,80.9-11.2c2.3,4.4,4.4,8.9,6.4,13.4
			c-1,0.3-2.1,0.6-3.1,0.9c-40.6,13.1-62.2,48.9-64,51.9C37,146.7,29.3,128.3,29.3,108.1z M108,186.8c-18.2,0-35-6.2-48.3-16.6
			c1.4-2.9,17.4-33.7,61.8-49.2c0.2-0.1,0.3-0.1,0.5-0.2c11.1,28.7,15.6,52.8,16.8,59.7C129.3,184.5,118.9,186.8,108,186.8z
			 M152,173.3c-0.8-4.8-5-27.8-15.3-56.1c24.7-3.9,46.3,2.5,49,3.4C182.2,142.5,169.7,161.4,152,173.3z"/>
	</g>
</g>
</svg>
